<svg xmlns="http://www.w3.org/2000/svg" width="88.727" height="134.086" viewBox="0 0 88.727 134.086">
  <path id="Path_72" data-name="Path 72" d="M252.637,146.226c-7.351-3.688-16.838-3.828-26.25-4.145q-4.616-22.073-9.235-44.148a40.24,40.24,0,0,1,5.436-.015,17.28,17.28,0,0,1,7.856,3.658c-11.916,4.968-4.428,24.484,8.182,18.161,6.115-3.067,6.813-11.365,3.625-16.84-3.61-6.2-11.1-8.451-18.023-9.015a28.285,28.285,0,0,0-8.07-.695L214.08,83.25c-.54-2.58-4.491-1.487-3.953,1.089q.973,4.647,1.944,9.29a41.55,41.55,0,0,0-7.029,1.854q-.42-3.618-.842-7.237c-.3-2.589-4.4-2.621-4.1,0l1.028,8.836c-17.935,8.339-30.744,28.183-10.521,42.664,4.029,2.884,9.736,4.344,16.1,5.3q2.889,24.834,5.779,49.671a48.449,48.449,0,0,1-20.15-7.183,13.271,13.271,0,0,0,2-.063c4.025.173,8.027-1.616,9.107-5.7a13.111,13.111,0,0,0-1.432-15.8c-6.822-7.806-18.228-4.154-22.575,4.353-5.687,11.131,2.785,22.984,12.924,27.61,6.21,2.831,13.538,3.935,20.963,3.971q.7,6,1.4,12.006c.3,2.589,4.4,2.621,4.1,0q-.7-6.043-1.406-12.085a102.451,102.451,0,0,0,16.823-2.243q1.473,7.052,2.95,14.1c.538,2.58,4.491,1.489,3.951-1.089q-1.46-6.985-2.923-13.971c11.831-3.258,22.6-10.475,26.685-22.6C269,163.838,264.108,151.983,252.637,146.226ZM201.812,102.95q2.12,18.233,4.242,36.465a22.514,22.514,0,0,1-12.633-9.857C187.4,119.563,193.18,108.816,201.812,102.95Zm20.36,38.964a75.3,75.3,0,0,1-11.885-1.342q-2.316-19.911-4.633-39.821a25.708,25.708,0,0,1,3.227-1.264,35.722,35.722,0,0,1,4.2-1.034Q217.626,120.183,222.172,141.914Zm16.171-32.409a2.2,2.2,0,0,0,.918-2.8,26.325,26.325,0,0,0-1.216-2.377l.667.636Q241.722,112.65,238.343,109.505Zm-52.534,19.063c-3.562-6.795-1.237-12.793,3.092-17.586-2.606,5.108-3.175,11.135-.437,17.795a23.638,23.638,0,0,0,5.6,8.319A22.456,22.456,0,0,1,185.809,128.568ZM210.874,145.6c4.025.477,8.212.842,12.342,1.294q4.793,22.919,9.588,45.837a44.962,44.962,0,0,1-7.7,1.839,48.521,48.521,0,0,1-8.486.453Q213.747,170.316,210.874,145.6Zm16.63,1.81C241.5,149.274,253.8,153.057,255,167.242c.967,11.44-8.166,19.639-18.322,24.02Zm-36.225,22.022a.474.474,0,0,0,.129.031c.029.024.077.057.131.092l-.16.046a3.954,3.954,0,0,0-.6-.074c.033-.015.059-.041.092-.052s.188-.042.262-.061C191.113,169.433,191.218,169.44,191.279,169.437Zm8.308,1.631a8.436,8.436,0,0,0-5.322-1.784,1.773,1.773,0,0,0,.258-.335,1.922,1.922,0,0,0-.127-2.167A9.421,9.421,0,0,1,199.586,171.068Zm-12.917-2.862a3.972,3.972,0,0,0-.28.715,4.111,4.111,0,0,0-.1,1.1,6.564,6.564,0,0,0-2.084.546A10.068,10.068,0,0,1,186.67,168.206Zm-.732,19.8a54.534,54.534,0,0,0,16.6,8.667l-.094-.015C196.125,195.559,189.854,192.834,185.938,188.009Zm60.779,2.98a43.631,43.631,0,0,1-4.4,2.082c11.553-6.75,21.4-19.731,14.994-33.135a24.561,24.561,0,0,0-12.9-12.294,29.87,29.87,0,0,1,7.325,2.759C269.845,160.4,261.65,182.783,246.717,190.989Z" transform="translate(-177.606 -81.777)" fill="rgba(106,199,121,0.35)"/>
</svg>
