<svg id="Group_1" data-name="Group 1" xmlns="http://www.w3.org/2000/svg" width="53.84" height="34.29" viewBox="0 0 53.84 34.29">
  <g id="Group_20" data-name="Group 20">
    <path id="Path_1" data-name="Path 1" d="M257.442,59.808c-.014-.242-.037-.482-.069-.724,0-.037-.014-.078-.019-.12-.032-.208-.074-.413-.12-.617-.027-.125-.061-.25-.1-.376-.01-.041-.024-.088-.037-.134-.047-.154-.093-.3-.149-.45l-.014-.042c-.061-.153-.121-.306-.186-.454-.069-.167-.144-.325-.227-.484a4.035,4.035,0,0,0-.2-.366c-.032-.064-.069-.125-.107-.186-.093-.157-.195-.31-.3-.459-.071-.107-.149-.208-.223-.306,0-.01-.014-.014-.019-.024s-.019-.022-.027-.032c-.089-.115-.181-.227-.279-.339-.078-.093-.162-.186-.245-.274-.047-.051-.093-.1-.139-.148a8.578,8.578,0,0,0-1.665-1.313c-.093-.056-.186-.112-.284-.162-.115-.066-.227-.125-.343-.181a3.133,3.133,0,0,0-.291-.139,7.708,7.708,0,0,0-1.025-.386c-.149-.046-.3-.088-.455-.125-.129-.032-.264-.061-.394-.083-.06-.014-.12-.024-.181-.032-.11-.024-.218-.037-.329-.052-.074-.009-.149-.019-.223-.022-.134-.019-.274-.029-.408-.037-.162-.01-.325-.014-.487-.014h-9.634a8.567,8.567,0,0,0-8.559,8.558v4.708a8.568,8.568,0,0,0,8.559,8.559h5.645a15.726,15.726,0,0,1-1.462-2.32h-4.184a6.247,6.247,0,0,1-6.239-6.239V60.285a6.238,6.238,0,0,1,6.239-6.239H248.9a6.248,6.248,0,0,1,5.557,3.4c.024.042.046.088.064.13a6.167,6.167,0,0,1,.413,1.122c.037.125.061.242.084.343s.032.191.046.288a.094.094,0,0,1,.01.051c.009.061.019.122.022.181h.019a7.681,7.681,0,0,0,2.343,4.334V60.285C257.457,60.123,257.452,59.965,257.442,59.808ZM255.4,67.888a1.158,1.158,0,0,0-1.281.52,6.235,6.235,0,0,1-4.472,2.779,5.747,5.747,0,0,1-.746.046h-1.192a8.214,8.214,0,0,0-.849,2.32H248.9c.125,0,.25,0,.371-.014a8.541,8.541,0,0,0,6.8-3.874A1.165,1.165,0,0,0,255.4,67.888Z" transform="translate(-230.704 -44.55)" fill="#f6f6f6"/>
    <path id="Path_2" data-name="Path 2" d="M279.172,53.3c0-.036-.014-.078-.019-.12a8.577,8.577,0,0,0-8.456-7.236h-9.634a8.571,8.571,0,0,0-8.285,6.411,1.17,1.17,0,0,0,.834,1.43,1.281,1.281,0,0,0,.288.037,1.187,1.187,0,0,0,1.127-.9,6.242,6.242,0,0,1,6.036-4.657H270.7a6.238,6.238,0,0,1,6.239,6.238v4.709a6.248,6.248,0,0,1-6.239,6.239h-5.028a13.53,13.53,0,0,1-1.5,2.319H270.7a8.559,8.559,0,0,0,8.559-8.558V54.5A8.562,8.562,0,0,0,279.172,53.3Zm-17.224,12.15h-.186c-.538.019-1.043.019-1.507,0a17.4,17.4,0,0,1-4.051-.51l-.064-.014a5.4,5.4,0,0,1-2.4-1.3,8.537,8.537,0,0,0,6.935,4.129c.13,0,.26.009.391.009h1.7A7.439,7.439,0,0,0,261.948,65.446Z" transform="translate(-225.417 -45.939)" fill="#f6f6f6"/>
    <path id="Path_3" data-name="Path 3" d="M262.829,63.761a7.751,7.751,0,0,1-1.743,1.011,7.507,7.507,0,0,1-1.99.529,7.379,7.379,0,0,1-.97.061,7.733,7.733,0,0,1-7.608-6.412H250.5s0-.064-.022-.181a.094.094,0,0,0-.01-.051c-.009-.079-.024-.176-.046-.288s-.047-.218-.084-.343a5.6,5.6,0,0,0-.413-1.122c-.019-.042-.041-.088-.064-.13l.069-.014.487-.176.046,0a7.635,7.635,0,0,1,.617-2.2c0,.01.014.014.019.024.074.1.153.2.223.306.107.149.208.3.3.459.037.061.074.12.107.186a4.035,4.035,0,0,1,.2.366c.083.159.157.316.227.482.064.149.125.3.186.455l.014.042c.056.148.1.3.149.45.014.046.027.093.037.134.036.125.069.25.1.376.046.2.088.408.12.617,0,.042.015.083.019.12a5.406,5.406,0,0,0,4.055,4.417l.064.014a17.4,17.4,0,0,0,4.051.51c.464.015.968.015,1.507,0h.186C262.7,63.515,262.769,63.631,262.829,63.761Z" transform="translate(-226.108 -43.897)" fill="#f6f6f6"/>
    <path id="Path_4" data-name="Path 4" d="M260.319,61.663c-.1,0-.2.01-.3.01" transform="translate(-223.671 -42.166)" fill="#f6f6f6"/>
    <path id="Path_5" data-name="Path 5" d="M255.715,61.324l-.064-.014a5.938,5.938,0,0,1-.872-.3" transform="translate(-224.927 -42.323)" fill="#f6f6f6"/>
    <path id="Path_6" data-name="Path 6" d="M254.777,62.882s2.059,1,6.8.812" transform="translate(-224.928 -41.874)" fill="#f6f6f6"/>
    <path id="Path_7" data-name="Path 7" d="M247.966,68.228c-.237.12-.5.691-.724,1.545a18.148,18.148,0,0,0-.528,4.055l0,.264a1,1,0,0,1-1.516.839l-.228-.135a15.05,15.05,0,0,1-4.9-5.009,14.694,14.694,0,0,1-.914-1.694l1.433-.626h.834a15.727,15.727,0,0,0,1.462,2.32,13.271,13.271,0,0,0,1.652,1.814,15.572,15.572,0,0,1,.3-1.814,8.214,8.214,0,0,1,.849-2.32h1.192a5.746,5.746,0,0,0,.746-.046Z" transform="translate(-228.677 -40.785)" fill="#f6f6f6"/>
    <path id="Path_8" data-name="Path 8" d="M266.242,62.228a14.044,14.044,0,0,1-5.056,5.835l-.2.117a.876.876,0,0,1-1.322-.733l0-.228a16.445,16.445,0,0,0-.386-3.237,8.015,8.015,0,0,0-.278-.942,1.319,1.319,0,0,0-.427-.691l.288-.673c.464.015.968.015,1.507,0h.186c.064.112.13.227.19.357a7.991,7.991,0,0,1,.627,1.962c.078.386.144.817.195,1.29a12.369,12.369,0,0,0,1.21-1.29,13.538,13.538,0,0,0,1.5-2.319h.686Z" transform="translate(-224.018 -42.164)" fill="#f6f6f6"/>
  </g>
</svg>
