<svg xmlns="http://www.w3.org/2000/svg" width="448" height="582" viewBox="0 0 448 582">
    <path fill="none" stroke="#2943E2" d="M275.965 455v-7.429c0-65.626 20.089-98.085 75.752-135.32C393.875 283.942 447 246.507 447 152.055 447 43.625 356.958-22 231.341-22 113.596-22 25.462 46.278 1 168.53l88.773 19.625C111.65 98.798 163.105 58.402 232.218 58.402c69.123 0 113.39 34.357 113.39 91.019 0 55.872-27.12 82.682-64.676 107.32-62.922 41.778-94.69 85.961-94.69 163.275V455h89.723zM284 643V531H172v112h112z" opacity=".2"/>
</svg>
