<svg width="50" height="50" viewBox="0 0 194 200" fill="none" xmlns="http://www.w3.org/2000/svg">
<path d="M194 78.7074C194 92.2284 184.011 103.45 171.048 105.393C164.864 95.8367 154.241 89.4132 142.111 89.1357C140.763 85.9239 140.01 82.395 140.01 78.7074C140.01 63.7986 152.14 51.7051 167.005 51.7051C181.87 51.7051 194 63.8383 194 78.7074ZM164.072 11.0231C149.167 11.0231 137.076 23.1563 137.076 38.0255C137.076 43.7749 138.9 49.1277 141.992 53.529C148.414 47.1452 157.253 43.2197 167.005 43.2197C174.933 43.2197 182.266 45.8367 188.173 50.238C190.036 46.5901 191.106 42.4267 191.106 38.0651C191.067 23.1563 178.976 11.0231 164.072 11.0231ZM106.791 132.95C104.809 132.474 102.748 132.236 100.647 132.236C85.7421 132.236 73.6518 144.37 73.6518 159.239C73.6518 174.108 85.7818 186.241 100.647 186.241C115.512 186.241 127.642 174.108 127.642 159.239C127.642 158.644 127.602 158.089 127.563 157.494C117.256 153.172 109.407 144.052 106.791 132.95ZM65.1291 159.239C65.1291 154.758 65.9616 150.476 67.5076 146.511C65.8427 146.194 64.1381 145.995 62.3543 145.995C47.4495 145.995 35.3592 158.128 35.3592 172.998C35.3592 187.906 47.4892 200 62.3543 200C70.7581 200 78.2501 196.154 83.2051 190.127C72.423 184.06 65.1291 172.482 65.1291 159.239ZM2.49734 160.111C2.49734 175.02 14.6273 187.113 29.4924 187.113C29.5717 187.113 29.6906 187.113 29.7699 187.113C27.9068 182.791 26.8365 178.033 26.8365 173.037C26.8365 158.525 35.5574 146.075 48.0441 140.563C43.208 135.964 36.6673 133.109 29.4924 133.109C14.6273 133.109 2.49734 145.242 2.49734 160.111ZM26.9951 90.5631C12.0903 90.5631 0 102.696 0 117.565C0 123.711 2.0613 129.381 5.54965 133.941C11.8525 128.152 20.2562 124.623 29.4924 124.623C37.2223 124.623 44.3972 127.121 50.2244 131.324C52.6424 127.28 54.0298 122.561 54.0298 117.565C54.0298 102.657 41.8999 90.5631 26.9951 90.5631ZM60.293 40.0476C46.1414 40.0476 34.6457 51.5465 34.6457 65.7019C34.6457 79.8573 46.1414 91.3561 60.293 91.3561C74.4446 91.3561 85.9403 79.8573 85.9403 65.7019C85.9403 51.5465 74.4446 40.0476 60.293 40.0476ZM141.358 97.8192C126.453 97.8192 114.402 109.913 114.402 124.782C114.402 139.651 126.492 151.745 141.358 151.745C156.223 151.745 168.313 139.651 168.313 124.782C168.313 109.913 156.262 97.8192 141.358 97.8192ZM99.973 26.9628C99.973 41.8716 112.103 53.9652 126.968 53.9652C128.712 53.9652 130.417 53.8066 132.082 53.4894C129.822 48.8105 128.554 43.5766 128.554 38.0651C128.554 25.1785 135.451 13.878 145.758 7.65275C140.882 2.93428 134.262 9.72247e-05 126.928 9.72247e-05C112.103 -0.0395538 99.973 12.054 99.973 26.9628Z" fill="#fff"/>
</svg>
