<svg xmlns="http://www.w3.org/2000/svg" width="83.005" height="90.513" viewBox="0 0 83.005 90.513">
  <path id="Path_74" data-name="Path 74" d="M219.846,118.06c-4.139-2.076-9.479-2.155-14.778-2.333q-2.6-12.426-5.2-24.854a22.655,22.655,0,0,1,3.061-.008,9.728,9.728,0,0,1,4.423,2.059c-6.708,2.8-2.493,13.784,4.606,10.224,3.442-1.726,3.836-6.4,2.041-9.48-2.032-3.489-6.25-4.758-10.147-5.075a15.923,15.923,0,0,0-4.543-.391l-1.17-5.6c-.3-1.452-2.528-.837-2.225.613q.548,2.616,1.095,5.23a23.392,23.392,0,0,0-3.957,1.044q-.237-2.037-.474-4.074c-.17-1.458-2.48-1.475-2.307,0l.579,4.975c-10.1,4.695-17.308,15.866-5.923,24.019,2.268,1.624,5.481,2.445,9.063,2.985q1.626,13.981,3.254,27.963a27.275,27.275,0,0,1-11.344-4.044,7.476,7.476,0,0,0,1.125-.035c2.266.1,4.519-.91,5.127-3.211a7.381,7.381,0,0,0-.806-8.9c-3.841-4.395-10.262-2.338-12.709,2.451-3.2,6.266,1.568,12.939,7.276,15.543a29.049,29.049,0,0,0,11.8,2.236q.394,3.38.786,6.759c.169,1.458,2.479,1.475,2.307,0q-.4-3.4-.792-6.8a57.677,57.677,0,0,0,9.471-1.263q.829,3.97,1.661,7.939c.3,1.452,2.528.838,2.224-.613q-.822-3.933-1.645-7.865c6.661-1.834,12.726-5.9,15.023-12.721A13.343,13.343,0,0,0,219.846,118.06ZM191.233,93.7q1.194,10.265,2.388,20.528a12.674,12.674,0,0,1-7.112-5.549C183.12,103.049,186.374,97,191.233,93.7ZM202.7,115.632a42.393,42.393,0,0,1-6.691-.755L193.4,92.459a14.475,14.475,0,0,1,1.817-.712,20.113,20.113,0,0,1,2.364-.582Q200.136,103.4,202.7,115.632Zm9.1-18.245a1.238,1.238,0,0,0,.517-1.574,14.822,14.822,0,0,0-.685-1.338l.376.358Q213.7,99.157,211.8,97.387Zm-29.575,10.732c-2.005-3.825-.7-7.2,1.741-9.9a11.582,11.582,0,0,0-.246,10.018,13.307,13.307,0,0,0,3.151,4.683A12.642,12.642,0,0,1,182.224,108.118Zm14.111,9.591c2.266.269,4.623.474,6.948.728q2.7,12.9,5.4,25.805a25.311,25.311,0,0,1-4.332,1.035,27.315,27.315,0,0,1-4.778.255Q197.952,131.621,196.335,117.71Zm9.362,1.019c7.878,1.047,14.8,3.177,15.478,11.162.545,6.441-4.6,11.056-10.315,13.522Zm-20.394,12.4a.268.268,0,0,0,.073.018c.017.013.044.032.074.052l-.09.026a2.228,2.228,0,0,0-.34-.041c.019-.008.033-.023.052-.029s.106-.024.147-.034C185.21,131.124,185.269,131.129,185.3,131.127Zm4.677.918a4.749,4.749,0,0,0-3-1,1,1,0,0,0,.145-.189,1.082,1.082,0,0,0-.072-1.22A5.3,5.3,0,0,1,189.98,132.045Zm-7.272-1.611a2.234,2.234,0,0,0-.158.4,2.314,2.314,0,0,0-.057.621,3.7,3.7,0,0,0-1.173.307A5.667,5.667,0,0,1,182.708,130.434Zm-.412,11.149a30.7,30.7,0,0,0,9.343,4.879l-.053-.008C188.032,145.833,184.5,144.3,182.3,141.582Zm34.217,1.678a24.557,24.557,0,0,1-2.475,1.172c6.5-3.8,12.048-11.108,8.441-18.654a13.827,13.827,0,0,0-7.261-6.921,16.816,16.816,0,0,1,4.124,1.553C229.534,126.037,224.92,138.64,216.513,143.26Z" transform="matrix(0.839, 0.545, -0.545, 0.839, -63.301, -165.315)" fill="rgba(106,199,121,0.35)"/>
</svg>
