<svg xmlns="http://www.w3.org/2000/svg" viewBox="0 0 309.17 179.58"><defs><style>.cls-1{fill:#e5005b;}</style></defs><g id="Layer_2" data-name="Layer 2"><g id="Layer_1-2" data-name="Layer 1"><path class="cls-1" d="M101.1,26.54c-16.41-10-32.62-21.9-49.89-26-2.84.1-1,.19-1.51,1.47C45.07.73,41.38,1.54,36.09.65c-6.74.67-16-1.09-19.12-.54,1.39,1,.54.92-.58.36-2.55-.8-8.67,0-6,1.33-.52.33-1.85-1-.63.59-3-1-4.66,0-6.38,1C-1.28,4.69-1,3.11,3.59,7.5c1.61,2.36,4.45,4,7.77,5.2l-.07.56c-1.29-.65-1-.35-1.06-.26,3.73,2.38,1,.79,3.89,1.8-.69.86-1.53.13.31,1.41,2.1,1.61-1.6-.2,1.43,1.9-5.34-2.06-1.67,1,.06,2.11-.69.2-2.61.05-.87,1.45-2-.14-.28,2-1.08,2.79.4,1,8.14,4.84,8.45,7.26-.83.05,1.68,1.52.8,2-.63-.09-2-1.26-1-.06-3.87-1.43-.38-.34-.33.43,1,1.62.37,3.13,3.84,3.9,5.92,3.41-6.76-3.13-2.46,0,1.19,1,1,1.56,2.21,2.21-4.22-.88,10.37,7,9.42,6.41.53.91-1.19.38.66,1.52.91-.09,1.93-.38,3,.76,3.11,3.65,7,2.44,11.72,6.6-4.83-3.16-5.73-1.73-1.13,0,4,1.36,4,2.24,7.72,4.14-2-.26,5.13,3.65,6.28,4.2,2.84,1.56-4.26-2.83,2.57.7l-.15-.16c5.58,2.31,5.7,2.47,12.12,6.48-4.32-1,18,9.43,20.8,12.49,3.16,1.65,3,.88,5.28,1.83.62.66,2,1.78.34,1.13,5.88,3.67,5.59,1.54,11.27,5.74-3.74-1.8,1.78,1.32-1.51,0,4.76,2.37,6.93,4.34,11.73,6.66,7.09,5.52,15.86,10,20.69,13,5.31,3.79,15.22,7.62,18.58,11.09,4.4,1.6,9.71,6.47,13.07,6.65,3.6.8,2.73,1.56,5.35,3.29,5.78,2.9,6.41,3.75,10.35,5.74-.06-.09-1.67-1-1-.84,3.51,1.72-1.34-.79-2.35-2a208.43,208.43,0,0,0,19.73,11.19c11.07,6.44,19.18,10.63,28.7,16.66,2.74.69-2.51-.66,0-2.16,1.13.65.57.64.25,1.36-.53,0,5.17,3.16,2.85,1.31,1.38.63,1,.36.18-.3,1.76.46,3.54,2,5,2.94.13-1,1.6-.19.61-1.06.44,0-.37-.65,1.18.05-.15.31,1.23,1.46-.25.86-3.44.92,3.71,3.7,5.35,4.86.26.28-1.2-.49-1-.28.53.32,1.45.86,1,.68-1.24-.51.66.58,1.5,1.13,1.82.07-2.91-3.42-.4-2.1.54.35,2.91,2.48,3,.75.5.23.78.41.34.92.91.78,1.23.33,1.66-.59,1.26-.55,8.94.52,4.83-1.4,1.39-.24,3,.6,4.76,1.73.8.63-2.12-.86-.39.25,3.42,2.24-.32-.05,0,.5-3-1.34,3.74,2,3.54,2,1.27,1.19-1.1-.47-1.6-.6,1.25,2.48-7.2-1.56-6.19-.48-1.2-.08,3.25,2.09,1.37,1.8.11.23-1.6-.53,1.32,1.23,1.55.43,10.91,5.36,4.13,1,1.95,1.17,4.83,2.42,4.79,1.33a11,11,0,0,0-2.45-1.5c-2.83-1.7,0-.26-.59-.7,1.81,1.06,3.18,1.44,4.63,2.24-.46-.51-2.32-1.81-3.36-2.65.45.15,2.5,1.26,1.08.28a36.52,36.52,0,0,1,4.58,2.55c.51.07-2.32-1.48-1.37-1.22,2.71.73.37.34-2.37-2.15-1-1.05,3.94,2.2,4.63,2.11l-1.78-1.22c.19-.64,1.74.86,1.68.61-.6-.69,1.13,0,1-.42.7,0-3.18-2-3.65-2.49a22.29,22.29,0,0,0,5.11,2c.58-.2,2,.87.8-.24-1.05-.76,1,.42.52,0s-1.33-.78-1.79-1.12c1,.6-1.44-1.3-.12-.73s.33-.15,1.36.3c-1.4-1,.44.12.4-.16s-1.83-1.54-1.58-1.74c.2,0,.87.41,1,.39.52.26.66.3.05-.09,1.09.45.16-.18-.5-.63a27.17,27.17,0,0,1,3.34,1.74c-1.78-2.37,5.29,2.05,1.55-.52,2.14.54,1.57.64.28-.48,1.82.67-1.16-.94-1.54-1.32,1.44.41,6.14,3.12,2.93.91-2.12-1.64-2.41-1.6-.12-.44,5.12,2,1.62-.41-.16-1.59-.36-1.09,5.85,1.44.2-2,2.55,1.4,1.71.7,1.77.59.39-1.32,5.52,2.37,3.92.75-2.71-2.07.32-.83-2.64-2.67.36-.22,1.74.9,1.64.66-.21-.4-2.8-1.63-.53-1.08l-.51-.48c.52.19,3.3,1.8,1.2.07,2.79,1.7,2.48,1-.08-.14,1.79.79,2.85-.23.89-1.55.77.09,1.95.46.53-.78,1.17.78,4.56,1.95,1-.49.17.08.43.23.31.1.2.09.21.07,0-.06,2.06,1.11,6.84,3.26,2.32.94,1.49,0,.55-.54-.21-.86-1.83-1.61,1-.06.61-1.7-.64-.87.68-.4,1.12-.5.91-.55.15-1.19,1.1-1,.91-.21-.7-1.51,1.31-1.4.64-.22-1.06-1.19,1.33-.15-.59-.89,1.13-.14-.37-1.17,13.09,4.33-11.05-16.2-3-11.81-3.25-3.08-5.6-2.89-9.24-3.21-1.2-1.26,0-1.27.16-2.37.11-.05,1.13.41-.45-.57-5.18-3.09,1.57,0-.48-1.76.36-.46,1.16.6,1.13.05-9.09-4.21-14.13-9.56-23.39-13.52-.65-.13.31.49.72,1-2.83-1.17-2,.35-5.57-2s-2.31-3.43-6.47-4.73c-.85-.31-1.19-.32-1,0-.59-.18-4.41-3.08-2.86-3-12.51-6.07-21.85-12.84-33.43-20,1,.61,1.79,1.13,3.08,1.83-1.44-.88-11.27-7-8.84-4.62a6.78,6.78,0,0,1-2.94-.73c-1.81.63-6.77-3.66-9.32-4.67-1.13-.37-5.19-.8-7.14-2.2-11.46-7.55-34.57-23.25-50-33C130.93,43.41,116.42,35.28,101.1,26.54Z"/></g></g></svg>